<?xml version="1.0" encoding="UTF-8" standalone="no"?>
<!-- Created with Inkscape (http://www.inkscape.org/) -->

<svg
   xmlns:dc="http://purl.org/dc/elements/1.1/"
   xmlns:cc="http://creativecommons.org/ns#"
   xmlns:rdf="http://www.w3.org/1999/02/22-rdf-syntax-ns#"
   xmlns:svg="http://www.w3.org/2000/svg"
   xmlns="http://www.w3.org/2000/svg"
   xmlns:sodipodi="http://sodipodi.sourceforge.net/DTD/sodipodi-0.dtd"
   xmlns:inkscape="http://www.inkscape.org/namespaces/inkscape"
   width="210mm"
   height="210mm"
   viewBox="0 0 210 210"
   version="1.1"
   id="svg9261"
   inkscape:version="0.92.4 (5da689c313, 2019-01-14)"
   sodipodi:docname="linenumbers.svg">
  <defs
     id="defs9255" />
  <sodipodi:namedview
     id="base"
     pagecolor="#ffffff"
     bordercolor="#666666"
     borderopacity="1.0"
     inkscape:pageopacity="0.0"
     inkscape:pageshadow="2"
     inkscape:zoom="0.35"
     inkscape:cx="400"
     inkscape:cy="560"
     inkscape:document-units="mm"
     inkscape:current-layer="layer1"
     showgrid="false"
     inkscape:window-width="1280"
     inkscape:window-height="987"
     inkscape:window-x="0"
     inkscape:window-y="309"
     inkscape:window-maximized="1" />
  <metadata
     id="metadata9258">
    <rdf:RDF>
      <cc:Work
         rdf:about="">
        <dc:format>image/svg+xml</dc:format>
        <dc:type
           rdf:resource="http://purl.org/dc/dcmitype/StillImage" />
        <dc:title></dc:title>
      </cc:Work>
    </rdf:RDF>
  </metadata>
  <g
     inkscape:label="Layer 1"
     inkscape:groupmode="layer"
     id="layer1"
     transform="translate(0,-87)">
    <g
       transform="matrix(13.547747,0,0,13.007781,-16.398764,75.608541)"
       id="g7879">
      <path
         style="fill:#5f6368;fill-rule:evenodd"
         inkscape:connector-curvature="0"
         d="m 0,11 h 2 v 0.5 H 1 v 1 H 2 V 13 H 0 v 1 H 3 V 10 H 0 Z M 0,6 H 1.8 L 0,8.1 V 9 H 3 V 8 H 1.2 L 3,5.9 V 5 H 0 Z M 1,4 H 2 V 0 H 0 V 1 H 1 Z M 5,1 v 2 h 9 V 1 Z m 0,12 h 9 V 11 H 5 Z M 5,8 h 9 V 6 H 5 Z"
         transform="translate(2,2)"
         id="path7877" />
    </g>
  </g>
</svg>
